<?xml version="1.0" standalone="no"?>
<!DOCTYPE svg PUBLIC "-//W3C//DTD SVG 20010904//EN"
 "http://www.w3.org/TR/2001/REC-SVG-20010904/DTD/svg10.dtd">
<svg version="1.0" xmlns="http://www.w3.org/2000/svg"
 width="260.000000pt" height="260.000000pt" viewBox="0 0 260.000000 260.000000"
 preserveAspectRatio="xMidYMid meet">
<metadata>
Created by potrace 1.11, written by Peter Selinger 2001-2013
</metadata>
<g transform="translate(0.000000,260.000000) scale(0.100000,-0.100000)"
fill="#000000" stroke="none">
<path d="M1288 2525 c-3 -3 -18 -8 -34 -11 -16 -2 -49 -9 -74 -14 -25 -5 -58
-12 -75 -15 -16 -3 -41 -7 -55 -10 -14 -3 -38 -7 -55 -10 -16 -3 -55 -10 -85
-17 -30 -6 -64 -12 -75 -14 -23 -4 -59 -10 -131 -25 -75 -15 -107 -20 -129
-24 -25 -3 -181 -34 -215 -42 -14 -3 -38 -7 -54 -9 -15 -2 -57 -11 -92 -19
-36 -8 -68 -14 -72 -14 -4 1 -9 1 -12 -1 -3 -1 -16 -3 -30 -6 -89 -14 -92 -15
-85 -31 7 -19 26 -100 30 -128 2 -11 4 -20 5 -20 1 0 4 -11 6 -24 2 -14 11
-50 19 -80 8 -31 17 -72 20 -91 3 -19 13 -62 22 -95 8 -33 17 -69 19 -80 3
-22 5 -32 29 -130 9 -38 18 -79 20 -90 1 -11 20 -90 40 -175 20 -85 38 -164
40 -175 2 -11 13 -59 25 -107 11 -47 22 -96 23 -107 1 -12 5 -21 10 -21 4 0 6
-4 3 -8 -3 -5 3 -41 13 -82 12 -52 24 -78 42 -91 13 -11 30 -24 37 -29 6 -6
12 -7 12 -3 0 4 4 3 8 -3 4 -5 61 -46 127 -89 66 -44 123 -84 127 -90 4 -5 8
-6 8 -2 0 5 7 1 16 -7 8 -9 36 -28 62 -43 26 -15 52 -31 57 -36 6 -4 57 -39
115 -77 58 -38 110 -72 115 -77 6 -5 35 -24 65 -43 30 -19 57 -38 58 -42 2 -5
7 -8 12 -8 4 0 50 -29 102 -64 76 -51 97 -61 109 -52 9 6 36 27 60 47 24 21
85 70 134 110 50 40 95 78 102 83 6 6 30 24 52 40 23 17 41 33 41 38 0 4 6 8
14 8 8 0 16 3 18 8 2 4 39 36 83 72 44 36 85 70 92 75 7 6 18 15 25 20 160
127 309 249 313 255 2 3 7 20 9 36 3 16 8 38 10 49 3 18 16 112 22 160 1 11 5
38 9 60 3 22 8 50 10 61 2 12 7 48 11 80 7 64 11 89 14 89 1 0 3 11 5 25 5 44
16 124 20 150 3 14 7 39 9 55 3 17 7 48 11 70 3 22 8 58 11 80 2 22 9 65 14
95 9 53 18 108 24 160 13 98 17 128 21 150 3 14 8 39 10 55 3 17 8 44 11 61
l6 31 -59 9 c-74 10 -84 12 -108 17 -11 2 -42 8 -68 11 -27 4 -59 10 -70 12
-12 2 -38 6 -57 9 -19 2 -46 7 -60 10 -14 3 -43 8 -65 10 -22 3 -76 12 -120
20 -79 14 -124 21 -177 30 -15 2 -54 9 -88 15 -34 6 -76 13 -93 15 -79 10
-121 17 -189 30 -40 7 -76 12 -79 9 -4 -2 -10 0 -14 6 -7 11 -28 13 -37 5z"/>
</g>
</svg>
